<?xml version="1.0" encoding="utf-8"?>
<!-- Generator: Adobe Illustrator 19.2.1, SVG Export Plug-In . SVG Version: 6.00 Build 0)  -->
<svg version="1.1" id="Слой_1" xmlns="http://www.w3.org/2000/svg" xmlns:xlink="http://www.w3.org/1999/xlink" x="0px" y="0px"
	 width="128.4px" height="62.7px" viewBox="0 0 128.4 62.7" style="enable-background:new 0 0 128.4 62.7;" xml:space="preserve">
<style type="text/css">
	.st0{fill:#42454A;}
	.st1{fill:#EA2227;}
	.st2{fill:#25A8E0;}
	.st3{fill:#FFFFFF;}
	.st4{fill:#CDCCCB;}
</style>
<g>
	<g>
		<path class="st0" d="M7.7,10.2c0,0.5-0.1,0.9-0.3,1.3c-0.2,0.4-0.4,0.6-0.7,0.9c-0.3,0.2-0.6,0.4-0.9,0.6
			c-0.3,0.1-0.7,0.2-1.1,0.2v0.9H3v-0.9h0c-0.5-0.1-1-0.2-1.4-0.4c-0.4-0.2-0.7-0.4-0.9-0.7c-0.2-0.3-0.4-0.6-0.5-1S0,10.3,0,9.8
			V6.1c0-0.5,0.1-0.9,0.3-1.3C0.4,4.5,0.7,4.2,0.9,4c0.3-0.3,0.6-0.4,1-0.6C2.3,3.2,2.6,3.2,3,3.2V2.6h1.8l0,0.6
			c0.4,0,0.7,0.1,1.1,0.2C6.2,3.5,6.5,3.7,6.8,4c0.3,0.2,0.5,0.6,0.7,0.9c0.2,0.4,0.3,0.8,0.3,1.3V10.2z M3,4.6C2.6,4.7,2.3,4.8,2,5
			C1.8,5.3,1.7,5.6,1.7,6v4.4c0,0.2,0,0.4,0.1,0.6c0.1,0.2,0.2,0.3,0.3,0.4c0.1,0.1,0.3,0.2,0.4,0.3c0.2,0.1,0.3,0.1,0.5,0.1V4.6z
			 M6.1,6c0-0.4-0.1-0.7-0.4-1C5.5,4.8,5.2,4.7,4.8,4.6l0,7.1c0.1,0,0.3-0.1,0.4-0.1c0.2-0.1,0.3-0.2,0.4-0.3
			c0.1-0.1,0.2-0.2,0.3-0.4c0.1-0.2,0.1-0.3,0.1-0.5V6z"/>
		<path class="st0" d="M16.6,11.1c0,1-0.2,1.8-0.7,2.3c-0.5,0.5-1.2,0.8-2.1,0.8c-1,0-1.7-0.2-2.1-0.7c-0.4-0.5-0.7-1.2-0.7-2.1V5.6
			c0-0.4,0.1-0.9,0.2-1.2c0.1-0.4,0.3-0.7,0.5-1c0.2-0.3,0.5-0.5,0.9-0.6c0.4-0.1,0.8-0.2,1.3-0.2c0.5,0,1,0.1,1.3,0.2
			C15.5,2.8,15.8,3,16,3.3c0.2,0.3,0.4,0.6,0.5,1c0.1,0.4,0.1,0.8,0.1,1.3V11.1z M14.8,5.4c0-0.3-0.1-0.6-0.2-0.9
			c-0.1-0.3-0.4-0.4-0.8-0.4c-0.2,0-0.4,0-0.5,0.1C13.1,4.4,13,4.5,13,4.7c-0.1,0.1-0.1,0.3-0.1,0.5c0,0.2,0,0.3,0,0.5v5.8
			c0,0.3,0.1,0.6,0.2,0.8c0.1,0.2,0.4,0.4,0.8,0.4c0.4,0,0.6-0.1,0.8-0.4c0.2-0.2,0.2-0.5,0.2-0.9V5.4z"/>
		<path class="st0" d="M23.8,14.1v-5h-2.1v5H20V2.6h1.8v4.8h2.1V2.6h1.8v11.5H23.8z"/>
		<path class="st0" d="M29.9,14.1v2.2h-1.5v-3.7l0.7-0.1c0.3-0.3,0.5-0.7,0.6-1.1c0.1-0.4,0.2-1,0.2-1.7l0.2-7h5.2v9.9H36v3.8h-1.5
			v-2.2H29.9z M31.5,9.6c0,0.7-0.1,1.2-0.1,1.7c-0.1,0.5-0.2,0.9-0.4,1.2h2.5V4.3h-1.8L31.5,9.6z"/>
		<path class="st0" d="M46.8,2.5c0.5,0,0.9,0.1,1.2,0.2c0.3,0.1,0.6,0.3,0.9,0.5c0.2,0.2,0.4,0.5,0.5,0.8c0.1,0.3,0.2,0.7,0.2,1.1
			l-1.7,0.4c0-0.4-0.1-0.8-0.2-1c-0.2-0.3-0.4-0.4-0.8-0.4c-0.2,0-0.4,0-0.5,0.1c-0.1,0.1-0.2,0.2-0.3,0.3c-0.1,0.1-0.1,0.3-0.1,0.4
			c0,0.2,0,0.3,0,0.5v5.8c0,0.1,0,0.2,0,0.4c0,0.1,0.1,0.3,0.1,0.4c0.1,0.1,0.2,0.2,0.3,0.3c0.1,0.1,0.3,0.1,0.5,0.1
			c0.7,0,1-0.5,1-1.4c0.3,0.1,0.6,0.1,0.9,0.1c0.3,0,0.6,0.1,0.9,0.1c0,0.9-0.3,1.6-0.7,2.1c-0.5,0.5-1.1,0.8-2,0.8
			c-1,0-1.7-0.2-2.1-0.7c-0.5-0.5-0.7-1.2-0.7-2.1V5.6c0-0.4,0-0.8,0.1-1.2c0.1-0.4,0.3-0.7,0.5-1c0.2-0.3,0.5-0.5,0.9-0.7
			C45.8,2.6,46.2,2.5,46.8,2.5z"/>
		<path class="st0" d="M58,11.1c0,1-0.2,1.8-0.7,2.3c-0.5,0.5-1.2,0.8-2.1,0.8c-1,0-1.7-0.2-2.1-0.7c-0.4-0.5-0.7-1.2-0.7-2.1V5.6
			c0-0.4,0.1-0.9,0.2-1.2c0.1-0.4,0.3-0.7,0.5-1c0.2-0.3,0.5-0.5,0.9-0.6c0.4-0.1,0.8-0.2,1.3-0.2c0.5,0,1,0.1,1.3,0.2
			c0.4,0.1,0.6,0.3,0.9,0.6c0.2,0.3,0.4,0.6,0.5,1C58,4.6,58,5.1,58,5.5V11.1z M56.2,5.4c0-0.3-0.1-0.6-0.2-0.9
			c-0.1-0.3-0.4-0.4-0.8-0.4c-0.2,0-0.4,0-0.5,0.1c-0.1,0.1-0.2,0.2-0.3,0.3c-0.1,0.1-0.1,0.3-0.2,0.5c0,0.2,0,0.3,0,0.5v5.8
			c0,0.3,0.1,0.6,0.2,0.8c0.2,0.2,0.4,0.4,0.8,0.4c0.4,0,0.6-0.1,0.8-0.4c0.2-0.2,0.2-0.5,0.2-0.9V5.4z"/>
		<path class="st0" d="M62.2,14.1v2.2h-1.5v-3.7l0.7-0.1c0.3-0.3,0.5-0.7,0.6-1.1c0.1-0.4,0.2-1,0.2-1.7l0.2-7h5.2v9.9h0.7v3.8h-1.5
			v-2.2H62.2z M63.8,9.6c0,0.7-0.1,1.2-0.1,1.7c-0.1,0.5-0.2,0.9-0.4,1.2h2.5V4.3H64L63.8,9.6z"/>
		<path class="st0" d="M71.2,14.1V2.6h5.1v1.7H73v3.1h2.9v1.7H73v3.3h3.3v1.7H71.2z"/>
		<path class="st0" d="M83.4,6.9L81,14.1h-1.7V2.6H81v7.3H81l2.4-7.3h1.7v11.5h-1.8L83.4,6.9L83.4,6.9z M81.2,0c0,0.1,0,0.2,0.1,0.4
			c0.1,0.1,0.1,0.2,0.2,0.4c0.1,0.1,0.2,0.2,0.3,0.3c0.1,0.1,0.3,0.1,0.4,0.1c0.2,0,0.3,0,0.4-0.1c0.1-0.1,0.2-0.2,0.3-0.3
			c0.1-0.1,0.2-0.2,0.2-0.4c0-0.1,0.1-0.2,0.1-0.4h1.3c0,0.2-0.1,0.5-0.2,0.8C84.4,1,84.2,1.3,84,1.5c-0.2,0.2-0.4,0.4-0.7,0.6
			c-0.3,0.1-0.6,0.2-1,0.2c-0.4,0-0.8-0.1-1.1-0.2c-0.3-0.1-0.5-0.3-0.7-0.6c-0.2-0.2-0.3-0.5-0.4-0.7C80,0.5,79.9,0.2,79.9,0H81.2z
			"/>
		<path class="st0" d="M91.3,2.5c0.5,0,0.9,0.1,1.2,0.2c0.3,0.1,0.6,0.3,0.9,0.5c0.2,0.2,0.4,0.5,0.5,0.8c0.1,0.3,0.2,0.7,0.2,1.1
			l-1.7,0.4c0-0.4-0.1-0.8-0.2-1c-0.2-0.3-0.4-0.4-0.8-0.4c-0.2,0-0.4,0-0.5,0.1c-0.1,0.1-0.2,0.2-0.3,0.3c-0.1,0.1-0.1,0.3-0.1,0.4
			c0,0.2,0,0.3,0,0.5v5.8c0,0.1,0,0.2,0,0.4c0,0.1,0.1,0.3,0.1,0.4c0.1,0.1,0.2,0.2,0.3,0.3c0.1,0.1,0.3,0.1,0.5,0.1
			c0.7,0,1-0.5,1-1.4c0.3,0.1,0.6,0.1,0.9,0.1c0.3,0,0.6,0.1,0.9,0.1c0,0.9-0.3,1.6-0.7,2.1c-0.5,0.5-1.1,0.8-2,0.8
			c-1,0-1.7-0.2-2.1-0.7c-0.5-0.5-0.7-1.2-0.7-2.1V5.6c0-0.4,0-0.8,0.1-1.2c0.1-0.4,0.3-0.7,0.5-1c0.2-0.3,0.5-0.5,0.9-0.7
			C90.3,2.6,90.8,2.5,91.3,2.5z"/>
		<path class="st0" d="M99.9,4.3v9.8h-1.8V4.3h-1.9V2.6h5.5v1.7H99.9z"/>
		<path class="st0" d="M108.7,8.1c0.5,0.2,0.9,0.5,1,0.9c0.2,0.5,0.3,1,0.3,1.6c0,1.2-0.3,2.1-0.8,2.6c-0.5,0.6-1.3,0.8-2.4,0.8
			h-2.4V2.6h2.5c1,0,1.8,0.3,2.2,0.8c0.5,0.5,0.7,1.3,0.7,2.3c0,0.5-0.1,1-0.3,1.4C109.5,7.5,109.1,7.8,108.7,8.1L108.7,8.1z
			 M108.2,5.8c0-0.5-0.1-0.9-0.3-1.1c-0.2-0.2-0.6-0.3-1-0.3h-0.6v3h0.6c0.5,0,0.8-0.1,1-0.4C108.1,6.6,108.2,6.2,108.2,5.8z
			 M108.3,10.4c0-0.5-0.1-0.9-0.3-1.2c-0.2-0.3-0.5-0.4-1-0.4h-0.7v3.6h0.7c0.3,0,0.5-0.1,0.7-0.2c0.2-0.1,0.3-0.2,0.4-0.4
			c0.1-0.2,0.2-0.4,0.2-0.6C108.3,11,108.3,10.7,108.3,10.4z"/>
		<path class="st0" d="M117.5,6.9l-2.4,7.2h-1.7V2.6h1.7v7.3h0.1l2.4-7.3h1.7v11.5h-1.8L117.5,6.9L117.5,6.9z"/>
		<path class="st0" d="M122.3,14.1l0.6-3.6c0.1-0.4,0.2-0.7,0.4-1c0.2-0.3,0.4-0.6,0.7-0.7c-0.5-0.2-0.9-0.6-1.1-1
			c-0.2-0.4-0.3-1-0.3-1.6c0-1.1,0.3-2,0.8-2.6c0.5-0.6,1.3-0.9,2.3-0.9h2.6v11.5h-1.8V9.2H126c-0.3,0-0.6,0.1-0.9,0.4
			c-0.3,0.2-0.4,0.7-0.6,1.3l-0.5,3.2H122.3z M125.8,4.3c-0.5,0-0.9,0.2-1.1,0.5c-0.2,0.3-0.3,0.7-0.3,1.3c0,0.6,0.1,0.9,0.4,1.2
			c0.3,0.2,0.6,0.3,1,0.3h0.7V4.3H125.8z"/>
		<path class="st0" d="M5.4,23.6l-3,8.9H0.3V18.3h2.2v9h0.1l3-9h2.2v14.2H5.5L5.4,23.6L5.4,23.6z"/>
		<path class="st0" d="M18.5,32.5v-6.2H16v6.2h-2.2V18.3H16v5.9h2.6v-5.9h2.2v14.2H18.5z"/>
		<path class="st0" d="M31.7,32.5v-6.2h-2.6v6.2h-2.2V18.3h2.2v5.9h2.6v-5.9h2.2v14.2H31.7z"/>
		<path class="st0" d="M46.9,28.9c0,1.2-0.3,2.2-0.8,2.8c-0.6,0.6-1.4,0.9-2.7,0.9c-1.2,0-2.1-0.3-2.6-0.9c-0.5-0.6-0.8-1.5-0.8-2.6
			V22c0-0.6,0.1-1.1,0.2-1.5c0.1-0.5,0.3-0.9,0.6-1.2c0.3-0.3,0.6-0.6,1.1-0.8c0.4-0.2,1-0.3,1.6-0.3c0.7,0,1.2,0.1,1.7,0.3
			c0.4,0.2,0.8,0.4,1.1,0.7c0.3,0.3,0.5,0.7,0.6,1.2c0.1,0.5,0.2,1,0.2,1.6V28.9z M44.7,21.8c0-0.4-0.1-0.7-0.3-1.1
			c-0.2-0.3-0.5-0.5-1-0.5c-0.3,0-0.5,0.1-0.6,0.2c-0.2,0.1-0.3,0.3-0.4,0.4c-0.1,0.2-0.2,0.4-0.2,0.6c0,0.2-0.1,0.4-0.1,0.6v7.2
			c0,0.4,0.1,0.7,0.3,1c0.2,0.3,0.5,0.4,1,0.4c0.5,0,0.8-0.2,1-0.5c0.2-0.3,0.3-0.7,0.3-1.1V21.8z"/>
		<path class="st0" d="M58.2,25.1c0.6,0.2,1.1,0.6,1.3,1.2c0.2,0.6,0.4,1.2,0.4,2c0,1.5-0.3,2.6-1,3.3c-0.6,0.7-1.6,1-2.9,1h-3V18.3
			h3.1c1.3,0,2.2,0.3,2.7,1c0.6,0.7,0.9,1.6,0.9,2.9c0,0.7-0.1,1.2-0.3,1.7c-0.2,0.5-0.6,0.9-1.2,1.1V25.1z M57.6,22.2
			c0-0.7-0.1-1.1-0.4-1.4c-0.3-0.3-0.7-0.4-1.3-0.4h-0.7V24h0.7c0.6,0,1-0.2,1.3-0.5C57.5,23.3,57.6,22.8,57.6,22.2z M57.7,28
			c0-0.7-0.1-1.2-0.4-1.5c-0.2-0.3-0.7-0.5-1.3-0.5h-0.8v4.4h0.9c0.4,0,0.6-0.1,0.9-0.2c0.2-0.1,0.4-0.3,0.5-0.5
			c0.1-0.2,0.2-0.5,0.2-0.8C57.7,28.7,57.7,28.4,57.7,28z"/>
		<path class="st0" d="M71.1,32.5l-0.6-3h-2.6c-0.1,0.5-0.2,1-0.3,1.5c-0.1,0.5-0.2,1-0.3,1.5h-2.3c0.5-2.4,1-4.8,1.4-7.1
			c0.5-2.4,1-4.7,1.4-7.1h2.5l2.9,14.2H71.1z M69.1,21.6c-0.1,1-0.3,2-0.4,2.9c-0.2,1-0.3,2-0.5,3h2l-0.9-5.9H69.1z"/>
		<path class="st0" d="M85.6,18.3v12.2h0.9v4.8h-1.9v-2.7h-6V18.3h2.2v12.2h2.5V18.3H85.6z"/>
		<path class="st0" d="M96.9,23.6l-3,8.9h-2.1V18.3h2.2v9H94l3-9h2.2v14.2H97L96.9,23.6L96.9,23.6z"/>
		<path class="st0" d="M104.7,32.5l0.8-4.5c0.1-0.5,0.2-0.9,0.5-1.3c0.2-0.4,0.5-0.7,0.9-0.9c-0.7-0.3-1.1-0.7-1.4-1.2
			c-0.2-0.6-0.4-1.2-0.4-2c0-1.4,0.3-2.5,1-3.2c0.7-0.7,1.6-1.1,2.8-1.1h3.3v14.2H110v-6.1h-0.6c-0.4,0-0.7,0.1-1.1,0.4
			c-0.3,0.3-0.6,0.8-0.7,1.6l-0.7,4H104.7z M109.1,20.4c-0.7,0-1.1,0.2-1.4,0.6c-0.3,0.4-0.4,0.9-0.4,1.6c0,0.7,0.2,1.2,0.5,1.4
			c0.3,0.3,0.8,0.4,1.3,0.4h0.9v-4H109.1z"/>
		<path class="st0" d="M122.5,29.4l-1-2.6l-0.9-2.5h-0.1v8.2h-2.2V18.3h2.2l1.6,4l1.1,3.1h0.1l1.2-3.2l1.5-4h2.1v14.2h-2.2v-8.2
			h-0.1l-0.9,2.5l-1,2.6H122.5z"/>
	</g>
	<g>
		<g>
			<path class="st1" d="M128.2,36.8C128.2,36.8,128.2,36.8,128.2,36.8c-30.9,30.2-92.7,25-115.1,0H0.3
				c16.9,17.9,41.2,24.7,61.6,25.6c2.1,0.1,4.2,0.1,6.2,0.1c13.2-0.2,27.9-3.1,40.7-9.9C116.1,48.8,122.8,43.6,128.2,36.8z"/>
			<path class="st2" d="M128.2,36.8C128.2,36.9,128.2,36.9,128.2,36.8c-0.5,0.4-1,0.7-1.4,1c-33.7,22.5-80.5,18.1-100.6-1H13.1
				C35.5,61.8,97.3,67.1,128.2,36.8z"/>
			<path class="st3" d="M120.8,40c-15.3,5.9-29.7,8.5-42.3,8.6C60.9,48.7,47,44,39.6,36.8H28.5h-2.3c20,18.9,66.3,23.4,99.9,1.4
				c0.2-0.1,0.5-0.3,0.7-0.5c0.5-0.3,0.9-0.6,1.4-0.9c0,0,0,0,0,0C125.7,38,123.2,39,120.8,40z"/>
			<path class="st4" d="M39.6,36.8c7.3,7,20.9,11.7,38.2,11.7c0.2,0,0.5,0,0.7,0c12.6-0.1,27-2.7,42.3-8.6c2.4-1,4.9-2,7.4-3.1
				c0,0,0,0,0,0c0,0,0,0,0,0c0,0,0,0,0,0c0,0,0,0,0,0c0,0,0,0,0,0c-5.4,6.7-12.1,11.9-19.5,15.8c-12.8,6.8-27.5,9.7-40.7,9.9
				c-0.5,0-1,0-1.5,0c-1.5,0-3.1,0-4.7-0.1c-20.4-0.9-44.6-7.7-61.6-25.6h12.7h13.1h2.3H39.6 M128.2,36.8L128.2,36.8 M39.6,36.7
				H28.5h-2.3H13.1H0.3c-0.1,0-0.1,0-0.2,0.1c0,0.1,0,0.1,0,0.2C8.1,45.3,18,51.8,29.7,56.2c9.8,3.7,21,5.9,32.1,6.4
				c1.6,0.1,3.1,0.1,4.7,0.1c0.5,0,1,0,1.5,0c7-0.1,13.9-0.9,20.5-2.5c7.3-1.7,14.1-4.2,20.2-7.4c7.8-4.2,14.4-9.5,19.5-15.9h0
				c0,0,0,0,0,0c0,0,0,0,0,0l0,0l0,0c0,0,0,0,0-0.1l0,0v0c0,0,0,0,0-0.1l0,0l0,0c0,0,0,0,0-0.1l0,0l0,0c0,0,0,0,0,0c0,0,0,0-0.1,0
				l0,0l0,0c0,0,0,0,0,0h0c0,0-0.1,0-0.1,0c-2.4,1.1-4.9,2.2-7.4,3.1c-14.2,5.5-28.8,8.5-42.2,8.6c-0.2,0-0.5,0-0.7,0
				c-16.5,0-30.3-4.3-38-11.7C39.7,36.7,39.7,36.7,39.6,36.7L39.6,36.7z"/>
		</g>
	</g>
</g>
</svg>
